<?xml version="1.0" encoding="utf-8"?>
<!-- Generator: Adobe Illustrator 15.0.2, SVG Export Plug-In  -->
<!DOCTYPE svg PUBLIC "-//W3C//DTD SVG 1.1//EN" "http://www.w3.org/Graphics/SVG/1.1/DTD/svg11.dtd" [
	<!ENTITY ns_flows "http://ns.adobe.com/Flows/1.0/">
]>
<svg version="1.1"
	 xmlns="http://www.w3.org/2000/svg" xmlns:xlink="http://www.w3.org/1999/xlink" xmlns:a="http://ns.adobe.com/AdobeSVGViewerExtensions/3.0/"
	 x="0px" y="0px" width="800px" height="600px" viewBox="-87.667 -1 800 600"
	 overflow="visible" enable-background="new -87.667 -1 800 600" xml:space="preserve">
<defs>
</defs>
<circle cx="298.667" cy="298.667" r="298.667"/>
<path fill="#F2F2F2" d="M111.218,329.314l166.248,166.25c0.043,0.044,0.084,0.084,0.14,0.145l0.1,0.093
	c0.693,0.693,1.5,1.186,2.247,1.794c0.652,0.567,1.258,1.149,1.967,1.624c9.864,6.787,22.909,6.806,32.805,0.129
	c1.753-1.128,3.392-2.371,4.889-3.87l166.499-166.497c11.425-11.427,11.422-29.97-0.012-41.403
	c-11.437-11.435-29.938-11.417-41.355,0L327.5,404.819l-0.012-305.057c-0.002-16.196-13.09-29.287-29.258-29.258
	c-16.156-0.014-29.244,13.072-29.246,29.245l-0.015,304.579L152.588,287.947c-11.433-11.434-29.934-11.448-41.364-0.019
	C99.802,299.351,99.799,317.896,111.218,329.314z"/>
</svg>
