<?xml version="1.0" encoding="utf-8"?>
<!-- Generator: Adobe Illustrator 15.0.1, SVG Export Plug-In . SVG Version: 6.00 Build 0)  -->
<!DOCTYPE svg PUBLIC "-//W3C//DTD SVG 1.1//EN" "http://www.w3.org/Graphics/SVG/1.1/DTD/svg11.dtd">
<svg version="1.1" xmlns="http://www.w3.org/2000/svg" xmlns:xlink="http://www.w3.org/1999/xlink" x="0px" y="0px" width="800px"
	 height="600px" viewBox="0 0 800 600" enable-background="new 0 0 800 600" xml:space="preserve">
<g id="Layer_1">
	<circle cx="300.599" cy="300.499" r="298.667"/>
	<path display="none" fill="#F2F2F2" d="M111.218,329.314l166.248,166.25c0.043,0.044,0.084,0.084,0.14,0.145l0.1,0.093
		c0.693,0.693,1.5,1.187,2.247,1.794c0.652,0.567,1.258,1.149,1.967,1.624c9.864,6.787,22.909,6.807,32.805,0.129
		c1.753-1.128,3.392-2.371,4.889-3.87l166.499-166.496c11.425-11.428,11.422-29.971-0.013-41.403
		c-11.437-11.435-29.938-11.417-41.354,0L327.5,404.819l-0.012-305.057c-0.002-16.196-13.09-29.287-29.258-29.258
		c-16.156-0.014-29.244,13.072-29.246,29.245l-0.015,304.579L152.588,287.947c-11.433-11.434-29.934-11.448-41.364-0.019
		C99.802,299.351,99.799,317.896,111.218,329.314z"/>
	
		<image display="none" overflow="visible" width="365" height="207" xlink:href="../../../../../Desktop/vm-outline.png"  transform="matrix(1.0767 0 0 1.0767 101.8335 171.6206)">
	</image>
</g>
<g id="Layer_3" display="none">
	
		<g id="layer1" transform="translate(-22.779422,-113.5204)" inkscape:groupmode="layer" inkscape:label="Layer 1" display="inline">
		<g id="g2473" transform="matrix(1.487792,0,0,1.487792,-78.780096,-458.22)">
			<path id="path2475" fill="#FFFFFF" d="M150.604,568.802l144.071-39.657c8.413-2.931,16.635-1.265,24.663,4.998l70.081,70.839
				c5.41,4.763,6.822,12.985,4.236,24.664l-9.996,32.377L238.068,718.63c-10.472,3.769-20.757,0.943-30.857-8.475l-51.608-82.03
				l-11.951-43.895C143.278,576.712,145.596,571.57,150.604,568.802z"/>
		</g>
		<g id="g2477" transform="matrix(1.487792,0,0,1.487792,-78.780096,-458.22)">
			<path id="path2479" d="M143.651,584.23c-0.25-5.063,0.719-9.049,2.908-11.957c32.211,48.441,51.231,77.039,59.275,89.129
				l-0.649,45.532l-49.582-78.809L143.651,584.23z"/>
		</g>
		<g id="g2481" transform="matrix(1.487792,0,0,1.487792,-78.780096,-458.22)">
			<path id="path2483" d="M194.17,587.222c0-22.828,34.613-41.335,77.311-41.335c42.699,0,77.312,18.507,77.312,41.335
				c0,22.829-34.613,41.334-77.312,41.334C228.783,628.557,194.17,610.051,194.17,587.222z"/>
		</g>
		<g id="g2485" transform="matrix(1.487792,0,0,1.487792,-78.780096,-458.22)">
			<path id="path2487" d="M107.455,227.365L107.455,227.365z"/>
		</g>
		<g id="g2489" transform="matrix(1.487792,0,0,1.487792,-78.780096,-458.22)">
			<path id="path2491" fill="#FFFFFF" d="M194.953,591.892c0-22.829,34.613-41.335,77.311-41.335
				c42.699,0,77.312,18.506,77.312,41.335c0,22.828-34.613,41.333-77.312,41.333C229.566,633.226,194.953,614.72,194.953,591.892z"
				/>
		</g>
		<g id="g2493" transform="matrix(1.487792,0,0,1.487792,-78.780096,-458.22)">
			<path id="path2495" fill="#FFFFFF" d="M107.455,227.365L107.455,227.365z"/>
		</g>
		<g id="g2497" transform="matrix(1.487792,0,0,1.487792,-78.780096,-458.22)">
			<path id="path2499" d="M207.971,635.839c0-7.021,8.635-12.711,19.286-12.711c10.651,0,19.286,5.691,19.286,12.711
				c0,7.021-8.635,12.713-19.286,12.713C216.606,648.552,207.971,642.86,207.971,635.839z"/>
		</g>
		<g id="g2501" transform="matrix(1.487792,0,0,1.487792,-78.780096,-458.22)">
			<path id="path2503" fill="#00FFFF" d="M107.455,227.365L107.455,227.365z"/>
		</g>
		<g id="g2505" transform="matrix(1.487792,0,0,1.487792,-78.780096,-458.22)">
			<path id="path2507" d="M246.519,635.215c0.016,0.207,0.023,0.414,0.023,0.624c0,7.021-8.635,12.713-19.286,12.713
				c-10.573,0-19.192-5.609-19.284-12.559v9.945c11.418,11.524,31.945,11.848,39.987-1.296L246.519,635.215z"/>
		</g>
		<g id="g2509" transform="matrix(1.487792,0,0,1.487792,-78.780096,-458.22)">
			<path id="path2511" d="M208.177,586.831c0-18.841,29.309-34.115,65.464-34.115c36.155,0,65.463,15.274,65.463,34.115
				c0,18.841-29.309,34.114-65.463,34.114C237.486,620.945,208.177,605.672,208.177,586.831z"/>
		</g>
		<g id="g2513" transform="matrix(1.487792,0,0,1.487792,-78.780096,-458.22)">
			<path id="path2515" d="M107.455,227.365L107.455,227.365z"/>
		</g>
		<g id="g2517" transform="matrix(1.487792,0,0,1.487792,-78.780096,-458.22)">
			<path id="path2519" fill="#FFFFFF" d="M209.392,589.773c0-17.887,28.747-32.388,64.208-32.388
				c35.462,0,64.209,14.5,64.209,32.388c0,17.886-28.747,32.387-64.209,32.387C238.139,622.16,209.392,607.659,209.392,589.773z"/>
		</g>
		<g id="g2521" transform="matrix(1.487792,0,0,1.487792,-78.780096,-458.22)">
			<path id="path2523" fill="#FFFFFF" d="M107.455,227.365L107.455,227.365z"/>
		</g>
		<g id="g2525" transform="matrix(1.487792,0,0,1.487792,-78.780096,-458.22)">
			<path id="path2527" d="M213.198,593.578c0-16.739,26.559-30.309,59.323-30.309c32.763,0,59.324,13.57,59.324,30.309
				c0,16.74-26.561,30.309-59.324,30.309C239.757,623.887,213.198,610.318,213.198,593.578z"/>
		</g>
		<g id="g2529" transform="matrix(1.487792,0,0,1.487792,-78.780096,-458.22)">
			<path id="path2531" d="M107.455,227.365L107.455,227.365z"/>
		</g>
		<g id="g2533" transform="matrix(1.487792,0,0,1.487792,-78.780096,-458.22)">
			<path id="path2535" fill="#FFFFFF" d="M218.731,589.988c0-14.995,24.197-27.152,54.046-27.152
				c29.85,0,54.047,12.157,54.047,27.152c0,14.996-24.197,27.152-54.047,27.152C242.928,617.14,218.731,604.984,218.731,589.988z"/>
		</g>
		<g id="g2537" transform="matrix(1.487792,0,0,1.487792,-78.780096,-458.22)">
			<path id="path2539" fill="#FFFFFF" d="M107.455,227.365L107.455,227.365z"/>
		</g>
		<g id="g2541" transform="matrix(1.487792,0,0,1.487792,-78.780096,-458.22)">
			<path id="path2543" d="M218.298,584.496c0-14.733,23.907-26.679,53.399-26.679c29.493,0,53.399,11.945,53.399,26.679
				c0,14.735-23.907,26.681-53.399,26.681S218.298,599.231,218.298,584.496z"/>
		</g>
		<g id="g2545" transform="matrix(1.487792,0,0,1.487792,-78.780096,-458.22)">
			<path id="path2547" d="M107.455,227.365L107.455,227.365z"/>
		</g>
		<g id="g2549" transform="matrix(1.487792,0,0,1.487792,-78.780096,-458.22)">
			<path id="path2551" fill="#FFFFFF" d="M223.4,583.025c0-14.16,22.378-25.64,49.984-25.64c27.607,0,49.986,11.479,49.986,25.64
				c0,14.16-22.379,25.64-49.986,25.64C245.778,608.666,223.4,597.185,223.4,583.025z"/>
		</g>
		<g id="g2553" transform="matrix(1.487792,0,0,1.487792,-78.780096,-458.22)">
			<path id="path2555" fill="#FFFFFF" d="M107.455,227.365L107.455,227.365z"/>
		</g>
		<g id="g2557" transform="matrix(1.487792,0,0,1.487792,-78.780096,-458.22)">
			<path id="path2559" d="M227.205,576.885c0-15.45,20.675-27.975,46.179-27.975c25.505,0,46.179,12.524,46.179,27.975
				c0,15.449-20.674,27.975-46.179,27.975C247.88,604.86,227.205,592.335,227.205,576.885z"/>
		</g>
		<g id="g2561" transform="matrix(1.487792,0,0,1.487792,-78.780096,-458.22)">
			<path id="path2563" d="M107.455,227.365L107.455,227.365z"/>
		</g>
		<g id="g2565" transform="matrix(1.487792,0,0,1.487792,-78.780096,-458.22)">
			<path id="path2567" fill="#FFFFFF" d="M229.364,577.061c0-11.344,19.34-20.539,43.197-20.539
				c23.857,0,43.196,9.195,43.196,20.539c0,11.343-19.339,20.539-43.196,20.539C248.704,597.6,229.364,588.404,229.364,577.061z"/>
		</g>
		<g id="g2569" transform="matrix(1.487792,0,0,1.487792,-78.780096,-458.22)">
			<path id="path2571" fill="#FFFFFF" d="M107.455,227.365L107.455,227.365z"/>
		</g>
		<g id="g2573" transform="matrix(1.487792,0,0,1.487792,-78.780096,-458.22)">
			<path id="path2575" d="M236.976,574.294c0-10.292,16.029-18.636,35.801-18.636c19.773,0,35.802,8.344,35.802,18.636
				c0,10.294-16.029,18.637-35.802,18.637C253.004,592.931,236.976,584.588,236.976,574.294z"/>
		</g>
		<g id="g2577" transform="matrix(1.487792,0,0,1.487792,-78.780096,-458.22)">
			<path id="path2579" d="M107.455,227.365L107.455,227.365z"/>
		</g>
		<g id="g2581" transform="matrix(1.487792,0,0,1.487792,-78.780096,-458.22)">
			<path id="path2583" fill="#FFFFFF" d="M241.645,572.863c0-8.072,14.034-14.614,31.348-14.614s31.348,6.543,31.348,14.614
				c0,8.071-14.034,14.616-31.348,14.616S241.645,580.935,241.645,572.863z"/>
		</g>
		<g id="g2585" transform="matrix(1.487792,0,0,1.487792,-78.780096,-458.22)">
			<path id="path2587" fill="#FFFFFF" d="M107.455,227.365L107.455,227.365z"/>
		</g>
		<g id="g2589" transform="matrix(1.487792,0,0,1.487792,-78.780096,-458.22)">
			<path id="path2591" d="M248.392,568.802c0-6.066,11.286-10.985,25.207-10.985c13.923,0,25.208,4.919,25.208,10.985
				c0,6.068-11.286,10.985-25.208,10.985C259.678,579.787,248.392,574.869,248.392,568.802z"/>
		</g>
		<g id="g2593" transform="matrix(1.487792,0,0,1.487792,-78.780096,-458.22)">
			<path id="path2595" d="M107.455,227.365L107.455,227.365z"/>
		</g>
		<g id="g2597" transform="matrix(1.487792,0,0,1.487792,-78.780096,-458.22)">
			<path id="path2599" fill="#FFFFFF" d="M252.63,566.036c0-4.108,8.73-7.437,19.5-7.437c10.769,0,19.499,3.329,19.499,7.437
				c0,4.106-8.73,7.435-19.499,7.435C261.359,573.471,252.63,570.142,252.63,566.036z"/>
		</g>
		<g id="g2601" transform="matrix(1.487792,0,0,1.487792,-78.780096,-458.22)">
			<path id="path2603" fill="#FFFFFF" d="M107.455,227.365L107.455,227.365z"/>
		</g>
		<g id="g2605" transform="matrix(1.487792,0,0,1.487792,-78.780096,-458.22)">
			<path id="path2607" fill="#FFFFFF" d="M207.971,638.487c0-0.446,0.035-0.889,0.104-1.324c1.005,6.398,9.209,11.388,19.182,11.388
				c9.973,0,18.178-4.99,19.183-11.388c0.069,0.435,0.103,0.878,0.103,1.324c0,7.021-8.635,12.712-19.286,12.712
				C216.606,651.199,207.971,645.508,207.971,638.487z"/>
		</g>
		<g id="g2609" transform="matrix(1.487792,0,0,1.487792,-78.780096,-458.22)">
			<path id="path2611" d="M390.71,606.272c3.77,4.262,5.001,10.718,3.697,19.366l-165.906,51.257
				c-15.91,3.652-27.498-0.324-34.763-11.929l-50.126-82.008c-0.037-4.32,0.882-7.795,2.756-10.425l58.786,88.627
				c4.742,3.846,14.486,4.71,29.229,2.592L381.91,617.14C386.848,613.922,389.782,610.3,390.71,606.272z"/>
		</g>
		<g id="g2613" transform="matrix(1.487792,0,0,1.487792,-78.780096,-458.22)">
			<path id="path2615" fill="#FFFFFF" d="M258.062,436.682c0.873-1.108,2.055-2.057,3.487-2.862l-0.006,132.901
				c-1.546-0.826-2.746-1.805-3.482-2.919V436.682z"/>
		</g>
		<g id="g2617" transform="matrix(1.487792,0,0,1.487792,-78.780096,-458.22)">
			<path id="path2619" d="M267.879,431.579c1.367-0.279,2.79-0.471,4.264-0.577c0,64.579-0.003,111.175-0.006,138.407
				c-1.47-0.103-2.889-0.289-4.238-0.554c-2.423-0.477-4.605-1.201-6.356-2.134l0.006-132.901
				C263.354,432.811,265.525,432.063,267.879,431.579z"/>
		</g>
		<g id="g2621" transform="matrix(1.487792,0,0,1.487792,-78.780096,-458.22)">
			<path id="path2623" fill="#FFFFFF" d="M281.209,568.903c-2.964,0.564-6.091,0.714-9.072,0.507
				c0.003-27.232,0.006-73.828,0.006-138.407c3.015-0.215,6.134-0.047,9.046,0.501c4.462,0.844,8.416,2.567,10.772,5.18v127.119
				C289.308,566.455,285.426,568.1,281.209,568.903z"/>
		</g>
		<g id="g2625" transform="matrix(1.487792,0,0,1.487792,-78.780096,-458.22)">
			<path id="path2627" fill="#FFFFFF" d="M258.062,436.682c6.046-7.677,26.942-7.714,33.898,0v5.743
				c-5.809,1.249-12.683,1.972-20.049,1.972c-4.89,0-9.563-0.319-13.85-0.898V436.682z"/>
		</g>
		<g id="g2629" transform="matrix(1.487792,0,0,1.487792,-78.780096,-458.22)">
			<path id="path2631" d="M271.912,441.749c3.259,0,6.423-0.141,9.439-0.407l0.001,2.648c-3.017,0.266-6.181,0.408-9.44,0.408
				c-4.89,0-9.563-0.319-13.85-0.898v-4.767C262.349,439.312,267.022,441.749,271.912,441.749z"/>
		</g>
	</g>
</g>
<g id="Layer_2">
	<path id="check_1_" fill="#FFFFFF" d="M103.757,370.944c0,0,77.552,87.332,93.062,123.006h66.696
		c27.918-85.308,136.492-288.966,229.553-360.313c19.281-24.79-29.157-35.023-68.247-18.612
		c-58.912,24.734-170.023,213.579-190.776,259.022c-29.47,7.756-60.491-49.633-60.491-49.633L103.757,370.944z"/>
</g>
</svg>
