<?xml version="1.0" encoding="utf-8"?>
<!-- Generator: Adobe Illustrator 15.0.2, SVG Export Plug-In . SVG Version: 6.00 Build 0)  -->
<!DOCTYPE svg PUBLIC "-//W3C//DTD SVG 1.1//EN" "http://www.w3.org/Graphics/SVG/1.1/DTD/svg11.dtd">
<svg version="1.1"
	 id="svg2463" xmlns:dc="http://purl.org/dc/elements/1.1/" sodipodi:docname="RetroJoystick002.svg" inkscape:output_extension="org.inkscape.output.svg.inkscape" xmlns:rdf="http://www.w3.org/1999/02/22-rdf-syntax-ns#" xmlns:cc="http://web.resource.org/cc/" inkscape:version="0.45.1" sodipodi:version="0.32" sodipodi:docbase="/home/brunurb/Desktop/Retrojoystick 002" inkscape:export-filename="/home/brunurb/Desktop/RetroJoystick002.png" inkscape:export-xdpi="71.981049" inkscape:export-ydpi="71.981049" xmlns:inkscape="http://www.inkscape.org/namespaces/inkscape" xmlns:sodipodi="http://sodipodi.sourceforge.net/DTD/sodipodi-0.dtd" xmlns:svg="http://www.w3.org/2000/svg"
	 xmlns="http://www.w3.org/2000/svg" xmlns:xlink="http://www.w3.org/1999/xlink" x="0px" y="0px" width="705.871px"
	 height="812.714px" viewBox="0 0 705.871 812.714" enable-background="new 0 0 705.871 812.714" xml:space="preserve">
<sodipodi:namedview  id="base" borderopacity="1.0" gridtolerance="10000" guidetolerance="10" inkscape:window-y="24" inkscape:document-units="px" inkscape:current-layer="layer1" inkscape:window-width="1280" inkscape:window-x="0" objecttolerance="10" inkscape:pageopacity="0.0" inkscape:pageshadow="2" inkscape:zoom="0.35" inkscape:cx="375" inkscape:cy="520" inkscape:window-height="951" pagecolor="#ffffff" bordercolor="#666666">
	</sodipodi:namedview>
<g id="layer1" transform="translate(-22.779422,-113.5204)" inkscape:label="Layer 1" inkscape:groupmode="layer">
	<g id="g2473" transform="matrix(1.487792,0,0,1.487792,-78.780096,-458.22)">
		<path id="path2475" d="M81.463,644.621l272-74.871c15.884-5.533,31.407-2.388,46.564,9.436l132.309,133.742
			c10.215,8.994,12.882,24.516,8,46.565l-18.872,61.128L246.592,927.492c-19.771,7.115-39.19,1.781-58.257-16L90.899,756.621
			L68.335,673.75C67.632,659.557,72.009,649.847,81.463,644.621z"/>
	</g>
	<g id="g2477" transform="matrix(1.487792,0,0,1.487792,-78.780096,-458.22)">
		<path id="path2479" fill="#FFFFFF" d="M68.335,673.75c-0.473-9.56,1.357-17.084,5.491-22.576
			c60.812,91.454,96.721,145.447,111.908,168.273l-1.226,85.963L90.899,756.621L68.335,673.75z"/>
	</g>
	<g id="g2481" transform="matrix(1.487792,0,0,1.487792,-78.780096,-458.22)">
		<path id="path2483" fill="#FFFFFF" d="M163.714,679.399c0-43.1,65.348-78.039,145.962-78.039
			c80.613,0,145.963,34.939,145.963,78.039c0,43.099-65.35,78.037-145.963,78.037C229.062,757.437,163.714,722.498,163.714,679.399z
			"/>
	</g>
	<g id="g2485" transform="matrix(1.487792,0,0,1.487792,-78.780096,-458.22)">
		<path id="path2487" fill="#FFFFFF" d="M0,0L0,0z"/>
	</g>
	<g id="g2489" transform="matrix(1.487792,0,0,1.487792,-78.780096,-458.22)">
		<path id="path2491" d="M165.192,688.214c0-43.1,65.348-78.038,145.961-78.038c80.614,0,145.962,34.938,145.962,78.038
			c0,43.099-65.348,78.037-145.962,78.037C230.54,766.252,165.192,731.314,165.192,688.214z"/>
	</g>
	<g id="g2493" transform="matrix(1.487792,0,0,1.487792,-78.780096,-458.22)">
		<path id="path2495" d="M0,0L0,0z"/>
	</g>
	<g id="g2497" transform="matrix(1.487792,0,0,1.487792,-78.780096,-458.22)">
		<path id="path2499" fill="#FFFFFF" d="M189.77,771.186c0-13.255,16.302-24,36.411-24s36.411,10.745,36.411,24
			s-16.302,24-36.411,24S189.77,784.441,189.77,771.186z"/>
	</g>
	<g id="g2501" transform="matrix(1.487792,0,0,1.487792,-78.780096,-458.22)">
		<path id="path2503" fill="#FF0000" d="M0,0L0,0z"/>
	</g>
	<g id="g2505" transform="matrix(1.487792,0,0,1.487792,-78.780096,-458.22)">
		<path id="path2507" fill="#FFFFFF" d="M262.548,770.006c0.029,0.391,0.044,0.784,0.044,1.18c0,13.255-16.302,24-36.411,24
			c-19.962,0-36.234-10.589-36.408-23.71v18.775c21.558,21.758,60.311,22.37,75.495-2.446L262.548,770.006z"/>
	</g>
	<g id="g2509" transform="matrix(1.487792,0,0,1.487792,-78.780096,-458.22)">
		<path id="path2511" fill="#FFFFFF" d="M190.16,678.66c0-35.572,55.334-64.408,123.592-64.408
			c68.26,0,123.593,28.836,123.593,64.408c0,35.572-55.333,64.407-123.593,64.407C245.494,743.067,190.16,714.232,190.16,678.66z"/>
	</g>
	<g id="g2513" transform="matrix(1.487792,0,0,1.487792,-78.780096,-458.22)">
		<path id="path2515" fill="#FFFFFF" d="M0,0L0,0z"/>
	</g>
	<g id="g2517" transform="matrix(1.487792,0,0,1.487792,-78.780096,-458.22)">
		<path id="path2519" d="M192.453,684.214c0-33.771,54.273-61.147,121.223-61.147c66.95,0,121.224,27.376,121.224,61.147
			c0,33.77-54.274,61.146-121.224,61.146C246.726,745.36,192.453,717.984,192.453,684.214z"/>
	</g>
	<g id="g2521" transform="matrix(1.487792,0,0,1.487792,-78.780096,-458.22)">
		<path id="path2523" d="M0,0L0,0z"/>
	</g>
	<g id="g2525" transform="matrix(1.487792,0,0,1.487792,-78.780096,-458.22)">
		<path id="path2527" fill="#FFFFFF" d="M199.638,691.399c0-31.604,50.143-57.223,112-57.223c61.856,0,112,25.62,112,57.223
			c0,31.604-50.144,57.222-112,57.222C249.781,748.621,199.638,723.003,199.638,691.399z"/>
	</g>
	<g id="g2529" transform="matrix(1.487792,0,0,1.487792,-78.780096,-458.22)">
		<path id="path2531" fill="#FFFFFF" d="M0,0L0,0z"/>
	</g>
	<g id="g2533" transform="matrix(1.487792,0,0,1.487792,-78.780096,-458.22)">
		<path id="path2535" d="M210.084,684.621c0-28.311,45.683-51.261,102.038-51.261c56.355,0,102.038,22.951,102.038,51.261
			c0,28.312-45.683,51.262-102.038,51.262C255.767,735.883,210.084,712.934,210.084,684.621z"/>
	</g>
	<g id="g2537" transform="matrix(1.487792,0,0,1.487792,-78.780096,-458.22)">
		<path id="path2539" d="M0,0L0,0z"/>
	</g>
	<g id="g2541" transform="matrix(1.487792,0,0,1.487792,-78.780096,-458.22)">
		<path id="path2543" fill="#FFFFFF" d="M209.268,674.252c0-27.817,45.136-50.369,100.816-50.369s100.815,22.551,100.815,50.369
			c0,27.819-45.136,50.37-100.815,50.37S209.268,702.071,209.268,674.252z"/>
	</g>
	<g id="g2545" transform="matrix(1.487792,0,0,1.487792,-78.780096,-458.22)">
		<path id="path2547" fill="#FFFFFF" d="M0,0L0,0z"/>
	</g>
	<g id="g2549" transform="matrix(1.487792,0,0,1.487792,-78.780096,-458.22)">
		<path id="path2551" d="M218.899,671.475c0-26.735,42.25-48.408,94.369-48.408c52.12,0,94.37,21.673,94.37,48.408
			c0,26.734-42.25,48.408-94.37,48.408C261.149,719.883,218.899,698.21,218.899,671.475z"/>
	</g>
	<g id="g2553" transform="matrix(1.487792,0,0,1.487792,-78.780096,-458.22)">
		<path id="path2555" d="M0,0L0,0z"/>
	</g>
	<g id="g2557" transform="matrix(1.487792,0,0,1.487792,-78.780096,-458.22)">
		<path id="path2559" fill="#FFFFFF" d="M226.084,659.883c0-29.17,39.033-52.816,87.184-52.816
			c48.152,0,87.185,23.646,87.185,52.816c0,29.168-39.034,52.815-87.185,52.815C265.117,712.699,226.084,689.052,226.084,659.883z"
			/>
	</g>
	<g id="g2561" transform="matrix(1.487792,0,0,1.487792,-78.780096,-458.22)">
		<path id="path2563" fill="#FFFFFF" d="M0,0L0,0z"/>
	</g>
	<g id="g2565" transform="matrix(1.487792,0,0,1.487792,-78.780096,-458.22)">
		<path id="path2567" d="M230.16,660.214c0-21.416,36.513-38.777,81.554-38.777c45.041,0,81.553,17.361,81.553,38.777
			c0,21.415-36.512,38.777-81.553,38.777C266.673,698.991,230.16,681.629,230.16,660.214z"/>
	</g>
	<g id="g2569" transform="matrix(1.487792,0,0,1.487792,-78.780096,-458.22)">
		<path id="path2571" d="M0,0L0,0z"/>
	</g>
	<g id="g2573" transform="matrix(1.487792,0,0,1.487792,-78.780096,-458.22)">
		<path id="path2575" fill="#FFFFFF" d="M244.53,654.991c0-19.432,30.261-35.185,67.592-35.185
			c37.331,0,67.592,15.753,67.592,35.185c0,19.433-30.262,35.184-67.592,35.184C274.791,690.176,244.53,674.424,244.53,654.991z"/>
	</g>
	<g id="g2577" transform="matrix(1.487792,0,0,1.487792,-78.780096,-458.22)">
		<path id="path2579" fill="#FFFFFF" d="M0,0L0,0z"/>
	</g>
	<g id="g2581" transform="matrix(1.487792,0,0,1.487792,-78.780096,-458.22)">
		<path id="path2583" d="M253.345,652.29c0-15.239,26.497-27.592,59.184-27.592c32.689,0,59.185,12.352,59.185,27.592
			c0,15.239-26.497,27.593-59.185,27.593C279.842,679.883,253.345,667.529,253.345,652.29z"/>
	</g>
	<g id="g2585" transform="matrix(1.487792,0,0,1.487792,-78.780096,-458.22)">
		<path id="path2587" d="M0,0L0,0z"/>
	</g>
	<g id="g2589" transform="matrix(1.487792,0,0,1.487792,-78.780096,-458.22)">
		<path id="path2591" fill="#FFFFFF" d="M266.084,644.621c0-11.453,21.307-20.738,47.591-20.738
			c26.286,0,47.592,9.285,47.592,20.738c0,11.455-21.306,20.739-47.592,20.739C287.391,665.36,266.084,656.075,266.084,644.621z"/>
	</g>
	<g id="g2593" transform="matrix(1.487792,0,0,1.487792,-78.780096,-458.22)">
		<path id="path2595" fill="#FFFFFF" d="M0,0L0,0z"/>
	</g>
	<g id="g2597" transform="matrix(1.487792,0,0,1.487792,-78.780096,-458.22)">
		<path id="path2599" d="M274.084,639.399c0-7.755,16.482-14.039,36.815-14.039c20.333,0,36.815,6.285,36.815,14.039
			c0,7.753-16.482,14.037-36.815,14.037C290.566,653.437,274.084,647.152,274.084,639.399z"/>
	</g>
	<g id="g2601" transform="matrix(1.487792,0,0,1.487792,-78.780096,-458.22)">
		<path id="path2603" d="M0,0L0,0z"/>
	</g>
	<g id="g2605" transform="matrix(1.487792,0,0,1.487792,-78.780096,-458.22)">
		<path id="path2607" d="M189.77,776.185c0-0.843,0.067-1.678,0.195-2.5c1.897,12.08,17.387,21.5,36.216,21.5
			c18.829,0,34.319-9.42,36.216-21.5c0.129,0.822,0.195,1.657,0.195,2.5c0,13.255-16.302,24-36.411,24S189.77,789.44,189.77,776.185
			z"/>
	</g>
	<g id="g2609" transform="matrix(1.487792,0,0,1.487792,-78.780096,-458.22)">
		<path id="path2611" fill="#FFFFFF" d="M534.775,715.362c7.115,8.047,9.441,20.236,6.979,36.565L228.53,848.697
			c-30.038,6.896-51.916-0.612-65.631-22.522L68.264,671.348c-0.071-8.155,1.664-14.716,5.203-19.683l110.986,167.326
			c8.953,7.26,27.349,8.89,55.185,4.893l278.522-88C527.485,729.808,533.023,722.968,534.775,715.362z"/>
	</g>
	<g id="g2613" transform="matrix(1.487792,0,0,1.487792,-78.780096,-458.22)">
		<path id="path2615" d="M284.34,395.185c1.648-2.092,3.881-3.884,6.584-5.403l-0.01,250.912c-2.919-1.56-5.186-3.409-6.574-5.512
			V395.185z"/>
	</g>
	<g id="g2617" transform="matrix(1.487792,0,0,1.487792,-78.780096,-458.22)">
		<path id="path2619" fill="#FFFFFF" d="M302.874,385.55c2.579-0.528,5.267-0.89,8.05-1.09c0,121.924-0.005,209.895-0.011,261.308
			c-2.774-0.194-5.454-0.546-8-1.046c-4.574-0.9-8.692-2.265-11.999-4.028l0.01-250.912
			C294.332,387.876,298.43,386.465,302.874,385.55z"/>
	</g>
	<g id="g2621" transform="matrix(1.487792,0,0,1.487792,-78.780096,-458.22)">
		<path id="path2623" d="M328.041,644.813c-5.596,1.065-11.5,1.347-17.128,0.955c0.006-51.413,0.011-139.384,0.011-261.308
			c5.693-0.405,11.581-0.089,17.078,0.946c8.424,1.593,15.89,4.847,20.339,9.779v239.996
			C343.331,640.189,336.002,643.295,328.041,644.813z"/>
	</g>
	<g id="g2625" transform="matrix(1.487792,0,0,1.487792,-78.780096,-458.22)">
		<path id="path2627" d="M284.34,395.185c11.416-14.495,50.866-14.564,64,0v10.843c-10.968,2.358-23.946,3.722-37.852,3.722
			c-9.231,0-18.052-0.601-26.148-1.695V395.185z"/>
	</g>
	<g id="g2629" transform="matrix(1.487792,0,0,1.487792,-78.780096,-458.22)">
		<path id="path2631" fill="#FFFFFF" d="M310.488,404.75c6.154,0,12.126-0.267,17.822-0.769l0.001,5
			c-5.697,0.502-11.669,0.769-17.823,0.769c-9.231,0-18.052-0.601-26.148-1.695v-9C292.436,400.149,301.257,404.75,310.488,404.75z"
			/>
	</g>
</g>
</svg>
